<?xml version="1.0" standalone="no"?>
<!DOCTYPE svg PUBLIC "-//W3C//DTD SVG 20010904//EN"
 "http://www.w3.org/TR/2001/REC-SVG-20010904/DTD/svg10.dtd">
<svg version="1.0" xmlns="http://www.w3.org/2000/svg"
 width="2048.000000pt" height="2048.000000pt" viewBox="0 0 2048.000000 2048.000000"
 preserveAspectRatio="xMidYMid meet">

<g transform="translate(0.000000,2048.000000) scale(0.100000,-0.100000)"
fill="#000000" stroke="none">
<path d="M7805 19669 c-85 -45 -382 -306 -580 -510 -416 -428 -664 -880 -694
-1265 -25 -320 68 -580 283 -798 44 -45 113 -106 151 -134 81 -60 237 -142
319 -168 31 -10 56 -21 56 -24 0 -3 -19 -17 -41 -30 -178 -100 -594 -403 -764
-557 -177 -160 -405 -404 -540 -578 -218 -278 -475 -702 -650 -1068 -62 -131
-198 -477 -248 -632 -48 -148 -104 -396 -129 -570 -20 -141 -17 -557 6 -748
10 -87 16 -160 14 -162 -2 -3 -51 30 -109 71 -119 87 -334 233 -435 295 -140
86 -429 249 -443 250 -39 3 -58 -4 -80 -28 -42 -48 -28 -93 98 -301 104 -173
110 -185 103 -220 -12 -55 1 -108 66 -259 86 -200 106 -286 106 -458 0 -191
-29 -294 -123 -430 -76 -111 -52 -161 98 -201 180 -47 340 -152 536 -349 319
-322 491 -771 420 -1095 -8 -36 -14 -79 -15 -96 0 -68 75 -112 138 -80 16 8
32 22 35 31 4 8 12 15 19 15 7 0 74 25 148 55 74 30 135 55 137 55 2 0 -10
-24 -26 -52 -125 -222 -227 -606 -285 -1068 -21 -163 -46 -493 -46 -597 0 -46
-2 -83 -5 -83 -17 0 -121 89 -195 166 -89 93 -173 195 -328 401 -51 67 -101
127 -111 133 -29 15 -83 12 -109 -6 -31 -22 -49 -60 -71 -156 -11 -46 -45
-171 -75 -279 -88 -310 -99 -371 -100 -544 -1 -166 14 -253 65 -378 15 -39 27
-72 26 -72 -1 -1 -28 -14 -60 -28 -69 -31 -159 -118 -199 -192 -44 -83 -61
-167 -55 -275 12 -223 103 -397 263 -502 64 -42 64 -43 37 -50 -82 -21 -879
-84 -1348 -107 -115 -6 -251 -13 -302 -16 l-92 -4 -11 34 c-14 42 -35 55 -90
55 -79 0 -118 -36 -260 -235 -161 -225 -447 -593 -652 -838 -51 -61 -67 -88
-71 -120 -8 -57 -52 -157 -132 -302 -37 -66 -125 -235 -196 -376 -94 -187
-142 -271 -179 -313 -27 -31 -60 -78 -71 -104 -58 -126 -302 -607 -348 -682
-28 -47 -51 -89 -51 -93 0 -4 -48 -60 -106 -125 -59 -64 -113 -131 -120 -149
-31 -73 -9 -131 76 -202 55 -46 66 -51 108 -51 26 1 65 5 87 9 22 5 84 18 137
30 152 32 357 59 548 72 185 13 226 11 890 -30 941 -59 1908 -56 2930 10 378
24 1354 108 1445 124 97 17 1362 129 2425 215 457 37 1034 66 1595 80 316 8
1994 4 2160 -5 44 -2 159 -7 255 -10 96 -3 216 -8 265 -10 50 -3 194 -10 320
-15 382 -18 806 -42 1190 -70 77 -5 232 -14 345 -20 113 -6 224 -13 246 -16
l41 -5 5 -77 c3 -61 11 -89 33 -131 60 -110 203 -201 380 -242 133 -30 416
-37 595 -14 160 20 337 63 405 98 76 38 131 91 161 155 16 31 48 75 72 96 59
53 319 448 421 641 65 122 163 283 237 390 142 204 406 698 519 970 41 100 85
231 85 256 0 9 39 76 86 150 261 405 505 904 565 1154 39 167 17 307 -63 386
-111 112 -459 219 -775 239 -229 14 -309 -9 -459 -136 l-63 -54 -113 0 c-62 0
-144 0 -183 0 -546 5 -909 5 -1039 1 -87 -4 -162 -4 -167 -1 -4 3 3 29 17 58
36 76 109 304 155 492 23 91 54 190 70 221 37 75 92 235 118 346 37 160 52
298 52 488 0 348 -56 660 -170 949 -84 210 -360 802 -394 844 -12 15 19 5 84
-28 22 -12 44 -19 47 -15 8 7 -94 215 -133 270 -71 101 -604 753 -732 895
-155 172 -228 243 -312 300 -31 21 -74 57 -96 81 l-39 43 110 27 c185 45 258
94 253 168 -2 20 0 50 5 68 6 25 1 47 -24 102 -52 119 -61 211 -35 335 27 127
153 352 252 452 29 28 78 61 130 86 117 55 146 105 104 174 -14 23 -34 37 -73
49 -136 45 -311 149 -395 236 -80 84 -125 215 -104 305 18 81 30 172 40 314
12 166 18 776 7 808 -9 28 -74 62 -120 62 -43 0 -61 -22 -211 -250 -120 -182
-108 -177 -135 -60 -16 70 -89 217 -196 395 -255 422 -683 912 -1064 1219
-135 109 -559 396 -765 518 -222 133 -750 382 -1001 473 -269 98 -583 158
-1024 197 -304 27 -1042 13 -1450 -28 -80 -7 -149 -14 -153 -14 -5 0 9 24 30
52 21 29 63 102 94 163 31 60 83 162 116 225 134 260 197 582 148 748 -28 93
-103 170 -189 193 -168 46 -699 -77 -1010 -233 -40 -20 -62 -26 -69 -19 -6 6
-13 141 -18 343 -8 318 -14 399 -53 641 -32 195 -54 245 -123 273 -41 18 -41
18 -88 -7z m4 -354 c7 -49 19 -137 27 -195 8 -58 19 -231 24 -385 12 -376 30
-461 113 -531 46 -39 102 -30 278 46 265 115 596 211 780 226 65 6 77 4 99
-14 21 -17 25 -30 28 -95 7 -133 -33 -285 -126 -480 -40 -85 -65 -124 -86
-139 -83 -57 -144 -139 -182 -245 -27 -79 -30 -121 -10 -187 11 -35 11 -48 3
-51 -7 -2 -55 -11 -107 -20 -232 -39 -598 -146 -833 -241 -125 -51 -172 -55
-308 -25 -191 43 -366 134 -506 265 -149 139 -217 269 -244 461 -54 393 220
934 736 1450 141 141 286 268 295 258 4 -4 12 -48 19 -98z m2546 -2395 c524
-28 873 -96 1208 -236 188 -79 708 -332 795 -387 l53 -33 -84 -32 c-188 -71
-484 -281 -718 -507 -212 -204 -388 -440 -549 -733 -25 -45 -47 -82 -50 -82
-3 0 -7 15 -8 33 -4 56 -22 145 -37 181 -31 72 -105 103 -178 72 -95 -39 -343
-386 -473 -661 l-38 -78 -33 149 c-56 253 -83 312 -151 332 -54 17 -61 16
-105 -15 -31 -22 -50 -50 -97 -147 -194 -400 -270 -596 -270 -697 0 -29 -7
-61 -19 -81 -23 -39 -140 -409 -181 -571 -15 -62 -34 -149 -41 -194 l-12 -82
-120 177 c-313 462 -479 640 -712 763 -83 44 -103 51 -137 46 -51 -7 -75 -30
-91 -85 -13 -43 -14 -44 -28 -25 -44 63 -473 534 -537 590 -95 83 -184 141
-229 149 -45 9 -110 -11 -124 -37 -6 -12 -9 -45 -7 -74 l3 -53 -75 60 c-181
143 -408 309 -477 349 -91 52 -162 72 -223 63 -37 -6 -54 -16 -97 -60 -64 -66
-84 -68 -198 -21 -154 64 -215 92 -215 100 0 21 205 295 320 427 238 274 401
430 636 607 533 401 891 565 1514 694 422 88 1192 130 1785 99z m2408 -879
c130 -87 325 -229 370 -271 13 -12 -102 -289 -453 -1086 -49 -110 -114 -265
-146 -345 -31 -79 -58 -145 -58 -146 -1 -1 -40 13 -87 32 -358 142 -749 138
-1052 -11 -137 -67 -279 -184 -391 -320 -78 -95 -162 -274 -183 -388 -8 -44
-26 -123 -40 -174 -45 -165 -30 -312 52 -515 58 -143 208 -363 324 -476 155
-150 477 -315 716 -367 99 -21 347 -24 455 -5 243 42 441 141 600 301 143 143
233 311 288 539 14 58 27 107 28 109 1 2 19 -8 39 -23 21 -14 44 -25 51 -25
29 0 22 -23 -26 -87 -29 -36 -56 -77 -61 -90 -8 -22 -3 -53 10 -53 3 0 12 -4
19 -9 11 -6 7 -19 -16 -62 -17 -30 -33 -70 -37 -89 -13 -71 45 -160 115 -175
16 -4 30 -8 30 -10 0 -3 -14 -26 -30 -52 l-31 -48 48 -3 c109 -7 197 22 368
121 92 54 810 526 900 592 136 100 224 185 284 275 32 48 61 94 64 101 4 10
16 2 39 -26 18 -22 51 -58 73 -79 42 -41 239 -176 257 -176 6 0 -22 -34 -61
-76 -125 -131 -260 -358 -301 -506 -45 -162 -35 -328 25 -444 29 -55 31 -64
17 -68 -10 -3 -96 -21 -192 -41 -192 -40 -445 -107 -490 -130 -60 -31 -70
-107 -19 -149 25 -21 41 -26 87 -26 31 0 82 7 112 15 70 19 70 19 70 -5 0 -28
30 -98 62 -146 31 -46 114 -126 263 -255 203 -175 503 -503 567 -619 23 -41
54 -98 70 -127 64 -118 249 -495 286 -583 45 -110 281 -826 311 -945 22 -89
53 -268 73 -420 7 -61 12 -202 12 -360 -1 -254 -2 -263 -32 -393 -17 -73 -50
-199 -72 -280 -39 -138 -62 -214 -130 -422 -41 -126 -52 -188 -49 -257 l4 -63
-40 -4 c-22 -3 -110 -8 -195 -11 -85 -2 -326 -11 -535 -20 -835 -32 -1242 -42
-2075 -50 -840 -8 -1356 -15 -1480 -20 -63 -3 -205 -7 -315 -10 -110 -3 -243
-8 -295 -10 -52 -2 -149 -7 -215 -10 -199 -9 -685 -35 -760 -40 -38 -2 -144
-9 -235 -15 -91 -6 -329 -21 -530 -35 -357 -24 -668 -45 -980 -65 -152 -10
-211 -14 -400 -25 -52 -3 -126 -8 -165 -10 -38 -2 -113 -7 -165 -10 -52 -2
-167 -9 -255 -15 -88 -5 -236 -14 -330 -20 -500 -30 -619 -42 -660 -63 -33
-18 -62 -22 -170 -25 -71 -2 -159 0 -195 5 -36 5 -76 5 -90 1 -14 -4 -128 -17
-255 -29 -126 -11 -365 -36 -530 -54 l-300 -33 -55 53 c-30 29 -84 72 -120 95
-124 81 -175 144 -215 263 -30 90 -34 206 -10 265 42 99 96 145 191 163 71 13
106 30 133 65 28 36 27 50 -14 155 -77 197 -98 392 -60 574 23 114 108 435
114 435 4 0 46 -57 96 -128 53 -75 130 -168 190 -227 126 -127 179 -157 336
-189 26 -6 26 -6 32 -128 6 -134 19 -186 69 -281 79 -149 226 -227 343 -182
52 19 61 33 71 104 6 49 5 55 -31 106 -34 50 -40 68 -60 192 -72 431 -82 755
-34 1103 28 203 106 519 203 825 36 110 67 211 71 225 6 20 33 63 112 179 1 2
119 34 261 71 360 93 392 104 469 156 74 50 115 85 109 91 -14 14 -171 43
-232 43 -85 0 -293 -39 -583 -111 -247 -60 -440 -123 -568 -184 -53 -25 -97
-45 -99 -45 -2 0 -4 31 -4 69 0 249 -142 617 -337 874 -61 81 -219 243 -313
322 -118 98 -268 188 -383 228 -16 6 -17 9 -1 44 83 190 102 438 49 642 -16
63 -15 62 56 -44 184 -278 343 -474 473 -587 112 -97 266 -198 301 -198 16 0
115 -40 221 -90 152 -71 217 -96 315 -120 229 -55 618 -111 772 -111 95 0 141
15 202 66 l30 25 -34 29 c-34 28 -34 29 -12 36 18 5 20 9 10 21 -10 12 1 14
67 15 142 2 143 8 5 68 -141 62 -234 116 -381 222 -58 41 -154 109 -215 149
-143 96 -407 286 -670 484 l-210 157 -7 47 c-42 297 -56 942 -25 1198 40 337
81 492 192 737 99 215 409 800 450 845 1 1 62 -22 136 -52 169 -68 237 -88
308 -89 68 0 103 16 158 77 40 44 42 45 75 34 57 -20 161 -89 328 -218 302
-233 358 -275 422 -313 54 -33 69 -37 103 -32 44 7 85 39 85 67 0 10 -11 41
-25 69 -36 71 -46 99 -35 99 32 0 352 -351 654 -715 70 -85 99 -105 153 -105
69 0 93 45 93 172 0 37 1 38 28 32 40 -10 104 -67 231 -208 153 -168 274 -330
479 -638 183 -275 191 -283 253 -258 52 22 66 50 73 152 16 213 47 350 156
683 52 158 71 228 69 263 -1 35 12 84 55 197 73 197 238 567 247 558 4 -5 28
-100 52 -213 56 -252 69 -288 113 -306 48 -20 97 -17 128 7 14 11 45 60 67
107 104 220 210 415 289 532 53 78 121 162 126 157 3 -3 12 -51 19 -108 26
-188 49 -229 134 -244 74 -12 108 19 221 205 219 361 452 629 795 914 168 139
247 191 432 282 84 42 155 80 159 85 3 5 10 9 15 9 5 0 82 -49 172 -109z m748
-633 c47 -51 111 -124 143 -161 70 -80 79 -42 -82 -327 -126 -224 -158 -277
-331 -545 -63 -99 -152 -245 -198 -325 -118 -210 -99 -196 -176 -123 -49 46
-165 135 -204 158 -2 1 15 44 38 96 231 538 533 1274 585 1427 6 18 115 -79
225 -200z m509 -633 c253 -383 299 -439 420 -507 30 -17 57 -33 59 -34 13 -11
-374 -507 -535 -686 l-33 -37 -43 19 c-24 10 -89 23 -145 29 -57 6 -148 16
-203 22 -55 5 -177 14 -272 19 -94 6 -172 11 -173 12 -2 2 -12 22 -24 46 l-22
42 62 108 c103 178 146 248 289 467 145 222 231 361 350 565 40 69 79 136 87
149 l15 24 24 -29 c14 -16 78 -110 144 -209z m-1902 -740 c227 -48 480 -180
607 -317 90 -96 169 -257 201 -406 24 -110 22 -300 -4 -423 -66 -309 -219
-508 -478 -622 -154 -67 -399 -95 -567 -63 -158 30 -382 121 -516 211 -229
152 -451 516 -451 740 0 75 11 115 65 241 24 55 47 125 51 155 9 70 42 127
129 218 149 157 339 253 555 281 92 12 321 4 408 -15z m1222 -670 c69 -3 164
-1 212 4 47 5 120 7 161 4 l74 -6 -173 -174 c-186 -186 -183 -184 -229 -133
-28 32 -93 60 -141 60 l-40 0 -13 103 c-6 56 -15 115 -18 130 -5 25 -3 28 18
23 13 -3 80 -7 149 -11z m-8727 -1203 c16 -17 50 -102 42 -102 -6 0 -75 103
-75 112 0 14 16 9 33 -10z m13752 -5472 c140 -31 264 -73 356 -121 96 -50 99
-58 88 -214 -12 -171 -41 -256 -123 -358 -17 -21 -42 -60 -56 -87 -14 -28 -52
-89 -85 -137 -32 -49 -98 -162 -146 -253 -93 -177 -162 -302 -309 -555 -51
-88 -123 -225 -160 -305 -122 -264 -226 -456 -407 -750 -49 -80 -105 -170
-123 -200 -66 -107 -111 -160 -201 -237 -90 -77 -158 -170 -191 -260 -7 -18
-14 -33 -18 -33 -3 0 -20 29 -38 63 -113 219 -320 337 -590 337 -92 0 -102 -2
-172 -36 -124 -60 -161 -68 -226 -49 -29 8 -54 20 -54 26 0 5 16 36 37 67 20
31 78 136 128 233 51 97 123 227 160 290 38 63 129 229 203 369 74 140 162
298 195 350 81 127 164 264 352 580 191 320 214 354 424 640 91 124 188 261
216 305 130 206 231 313 328 346 71 24 279 18 412 -11z m-1018 -259 l61 -6
-84 -105 c-47 -58 -99 -132 -117 -165 -95 -174 -288 -468 -363 -555 -110 -127
-189 -248 -352 -535 -74 -132 -235 -411 -356 -620 -121 -209 -251 -434 -289
-500 -137 -236 -413 -638 -525 -763 l-39 -44 -144 11 c-79 5 -189 13 -244 16
-94 5 -225 13 -790 50 -318 21 -1175 63 -1495 74 -146 5 -681 8 -1190 6 -1212
-4 -1592 -20 -2810 -120 -640 -53 -1661 -145 -1890 -170 -90 -10 -661 -65
-875 -84 -1003 -90 -1329 -105 -2280 -106 -763 0 -876 4 -1530 51 -404 30
-768 29 -973 -1 -63 -9 -118 -15 -124 -13 -5 2 0 16 12 30 16 22 19 32 11 47
-6 11 -11 30 -11 42 0 30 35 83 63 96 18 9 27 26 40 78 23 93 123 326 230 535
49 96 135 277 191 401 134 293 226 461 324 584 324 412 576 778 777 1129 l27
49 57 -7 c31 -3 94 -10 141 -16 186 -22 526 -30 807 -20 315 12 536 27 1003
70 1167 108 1638 144 2365 185 149 8 304 17 345 20 41 2 165 9 275 15 221 11
417 23 925 55 116 8 494 33 815 55 829 56 1180 76 1630 95 77 3 185 8 240 10
101 5 322 11 710 20 116 3 496 7 845 10 672 6 1617 21 1810 30 63 3 194 7 290
10 178 5 344 11 550 20 358 16 616 25 865 31 154 4 282 8 284 10 6 5 725 1
788 -5z m-794 -3100 c164 -64 307 -304 311 -521 1 -107 -12 -135 -78 -168
-108 -54 -452 -100 -666 -89 -316 16 -500 101 -500 229 0 49 51 148 98 190 78
71 183 111 332 128 224 27 419 -30 517 -151 53 -63 53 -63 -123 -55 -270 12
-349 22 -381 44 -72 52 -133 20 -133 -70 0 -47 3 -54 40 -89 49 -47 87 -55
320 -66 268 -12 338 -11 392 10 56 22 98 72 105 127 16 117 -118 291 -283 367
-154 70 -427 82 -638 28 -58 -15 -16 14 67 46 141 54 231 69 407 66 133 -3
163 -7 213 -26z"/>
<path d="M6739 12845 c-83 -17 -141 -46 -173 -87 -123 -160 -140 -202 -133
-333 6 -136 50 -226 171 -354 178 -186 442 -293 819 -333 281 -29 506 44 612
199 111 162 77 369 -90 552 -154 169 -454 316 -726 355 -129 19 -387 20 -480
1z"/>
<path d="M9880 12203 c-497 -23 -762 -53 -1045 -119 -222 -52 -277 -109 -289
-302 -8 -127 -5 -132 132 -236 275 -206 498 -357 697 -468 292 -164 397 -196
526 -164 118 31 220 96 419 271 63 56 185 157 270 225 254 204 347 311 371
425 11 58 11 62 -16 115 -32 64 -58 89 -135 129 -145 75 -386 119 -685 123
-104 2 -215 2 -245 1z m608 -283 c96 -12 224 -50 230 -68 6 -20 -112 -135
-268 -262 -80 -64 -194 -164 -255 -220 -231 -217 -326 -277 -419 -267 -61 7
-249 98 -442 214 -157 95 -248 159 -445 317 -158 125 -153 119 -133 184 2 8
30 12 91 12 48 0 183 11 298 25 181 22 570 58 730 68 133 8 539 6 613 -3z"/>
<path d="M13417 11140 c-175 -44 -286 -236 -391 -680 -143 -598 -160 -1022
-54 -1305 89 -237 359 -591 615 -807 144 -120 326 -222 598 -333 245 -101 355
-137 418 -139 55 -1 60 1 93 36 30 33 34 44 34 93 0 30 -13 101 -29 157 -24
89 -36 154 -66 381 -3 20 -3 37 0 37 2 0 39 -24 80 -54 301 -216 693 -296 932
-190 69 30 146 108 180 181 23 51 26 71 27 170 1 122 -5 139 -70 189 l-30 24
-41 -30 c-35 -26 -47 -46 -83 -135 -50 -124 -68 -149 -118 -166 -62 -22 -223
-15 -332 14 -191 50 -341 130 -500 268 -69 59 -86 69 -118 69 -44 0 -124 -46
-143 -81 -21 -41 -4 -443 27 -622 l7 -38 -54 21 c-473 186 -674 318 -892 584
-327 402 -385 611 -316 1161 50 404 164 845 240 926 25 27 33 29 96 29 79 0
159 -19 398 -95 176 -56 260 -79 332 -90 37 -6 46 -3 68 19 44 44 26 107 -51
175 -79 70 -241 136 -494 201 -135 35 -291 48 -363 30z"/>
<path d="M11815 10918 c-202 -19 -555 -119 -704 -199 -95 -51 -194 -117 -263
-174 -52 -43 -53 -44 -73 -25 -34 32 -89 50 -131 43 -53 -8 -140 -55 -202
-109 -29 -25 -52 -44 -52 -42 0 2 -11 66 -25 143 -32 188 -53 243 -113 292
-41 33 -53 38 -97 37 -54 -1 -93 -16 -405 -154 -334 -147 -379 -163 -806 -279
-198 -53 -424 -99 -619 -126 -427 -58 -550 -88 -637 -151 -75 -56 -335 -348
-599 -674 -195 -241 -282 -371 -334 -499 -20 -48 -49 -89 -118 -165 -133 -146
-160 -182 -144 -193 6 -6 51 -33 99 -61 l87 -51 18 23 c10 12 41 62 68 111 28
48 69 109 92 136 23 26 82 108 131 181 206 304 747 949 834 994 39 20 88 28
413 69 320 40 435 60 661 116 530 129 663 179 1079 400 64 33 119 58 123 55
16 -17 41 -243 41 -378 2 -293 -64 -459 -261 -657 -126 -127 -265 -226 -490
-349 -147 -81 -180 -192 -83 -282 69 -64 110 -200 102 -340 -7 -122 -33 -220
-92 -345 -40 -84 -46 -107 -42 -143 7 -65 37 -92 104 -92 49 0 57 4 97 40 53
49 108 156 136 265 11 44 25 150 31 235 11 147 10 161 -10 240 -12 47 -37 117
-55 157 l-35 72 86 52 c145 88 283 197 408 323 132 132 216 249 269 371 l33
76 20 -34 c50 -84 161 -123 318 -113 109 7 178 26 231 65 l40 28 279 -68 c329
-79 403 -102 578 -176 127 -53 132 -54 174 -42 91 25 112 64 137 259 34 261
41 366 41 645 0 323 -7 373 -66 439 -47 55 -119 69 -274 54z m140 -220 c11
-90 -16 -577 -46 -856 -10 -88 -14 -102 -28 -96 -79 32 -232 87 -301 108 -76
23 -415 104 -561 135 l-55 12 -14 67 c-7 37 -26 111 -42 166 -16 54 -28 100
-26 101 2 1 22 12 46 24 23 12 89 50 145 85 131 81 184 108 321 161 194 76
432 141 528 144 25 1 27 -3 33 -51z m-1267 -400 c56 -147 89 -332 68 -367 -10
-15 -147 -14 -236 1 -53 9 -81 9 -112 1 -24 -6 -44 -10 -45 -9 -2 1 4 37 12
79 8 41 17 112 21 156 6 68 10 81 24 81 10 0 64 34 120 75 56 41 106 73 110
70 4 -2 21 -42 38 -87z"/>
<path d="M14915 5500 c-16 -11 -38 -20 -47 -20 -9 0 -43 -24 -75 -53 -32 -29
-89 -77 -128 -107 -103 -79 -147 -123 -245 -245 -116 -146 -180 -245 -250
-390 -107 -220 -146 -392 -115 -497 22 -73 42 -106 101 -171 36 -39 72 -65
120 -87 159 -74 185 -81 294 -87 93 -5 113 -3 167 17 34 12 75 36 92 54 32 33
61 101 61 145 0 40 -35 88 -87 121 l-47 30 -160 -3 c-201 -3 -218 4 -237 89
-12 52 -11 61 15 139 45 141 106 222 381 510 309 324 355 382 355 448 0 102
-111 163 -195 107z"/>
<path d="M3946 5419 c-21 -5 -68 -23 -105 -41 -280 -133 -594 -518 -804 -984
-34 -76 -70 -150 -80 -164 -9 -13 -17 -34 -17 -45 0 -12 -23 -82 -51 -156
-106 -279 -149 -433 -149 -535 0 -48 4 -60 29 -85 17 -17 40 -29 55 -29 45 0
74 40 137 185 33 77 87 196 119 265 32 69 72 159 90 200 18 41 36 80 41 86 5
6 35 14 67 17 31 4 95 11 142 17 210 25 293 32 413 32 70 0 131 -2 134 -6 8
-8 -39 -183 -88 -325 -21 -63 -39 -132 -39 -153 0 -122 96 -181 206 -125 58
29 74 46 107 112 51 102 126 347 218 708 125 496 96 799 -92 953 -87 71 -217
100 -333 73z m101 -314 c43 -30 59 -146 43 -315 -10 -105 -34 -273 -45 -310
-4 -12 -31 -15 -162 -16 -158 0 -283 -15 -461 -54 l-83 -18 42 76 c161 296
406 570 565 632 60 23 74 24 101 5z"/>
<path d="M7145 5271 c-89 -22 -145 -75 -145 -136 0 -89 57 -119 212 -113 l100
4 34 37 c26 28 34 45 34 74 -1 51 -18 78 -71 113 -46 31 -96 37 -164 21z"/>
<path d="M13225 5135 c-122 -30 -264 -113 -372 -218 -103 -100 -158 -187 -212
-336 -41 -116 -45 -134 -45 -226 -1 -89 2 -106 26 -155 34 -69 85 -118 168
-163 157 -85 318 -112 503 -84 123 19 179 47 234 115 54 67 59 118 15 161 -32
33 -112 48 -158 30 -43 -16 -351 -37 -416 -29 -103 14 -138 51 -138 143 0 57
1 59 23 53 12 -4 70 -10 128 -13 115 -6 187 5 336 53 183 59 347 164 387 248
49 103 -11 281 -118 355 -93 64 -251 93 -361 66z m229 -305 c31 -31 9 -64 -61
-90 -63 -24 -314 -83 -403 -95 l-55 -7 25 27 c56 61 209 141 347 180 59 17
121 11 147 -15z"/>
<path d="M11980 5065 c-81 -23 -187 -77 -275 -140 -81 -58 -80 -58 -105 -13
-17 29 -73 41 -114 24 -44 -18 -54 -37 -165 -324 -49 -125 -103 -258 -120
-295 -18 -41 -31 -85 -31 -110 0 -22 -5 -69 -11 -104 -10 -54 -9 -71 5 -107
10 -27 26 -47 42 -55 34 -15 118 -14 159 3 46 20 89 97 115 208 14 60 39 122
78 195 50 96 71 122 177 228 140 141 229 196 319 199 l51 1 3 -69 c4 -84 -19
-201 -69 -364 -37 -119 -38 -124 -24 -165 8 -23 15 -56 15 -73 0 -55 21 -93
72 -134 41 -33 58 -40 94 -40 53 0 99 35 115 90 10 34 9 44 -11 86 -23 46 -23
50 -11 158 6 61 23 170 37 241 29 151 42 338 25 375 -23 52 -88 130 -133 160
-58 39 -153 48 -238 25z"/>
<path d="M9007 4959 c-53 -12 -122 -49 -194 -103 -33 -25 -67 -46 -76 -46 -23
0 -65 -38 -91 -83 -41 -69 -121 -292 -232 -647 -58 -184 -126 -388 -150 -453
-52 -139 -55 -183 -18 -220 34 -35 75 -42 117 -22 64 30 162 237 253 533 34
111 39 122 58 116 46 -15 146 -20 226 -13 363 35 554 241 538 579 -4 83 -9
107 -36 161 -17 35 -41 75 -54 89 -92 98 -217 138 -341 109z m133 -266 c41
-37 54 -94 40 -177 -6 -34 -21 -80 -33 -102 -46 -81 -160 -128 -343 -141 l-80
-6 35 143 36 142 55 52 c31 28 84 66 119 84 81 41 129 42 171 5z"/>
<path d="M10090 4944 c-36 -7 -92 -27 -125 -43 -152 -75 -321 -289 -356 -451
-17 -80 -7 -215 20 -269 61 -119 211 -191 396 -191 161 1 295 46 382 130 l40
39 33 -34 c41 -42 130 -82 201 -91 86 -10 152 14 220 80 63 61 95 119 102 187
l4 46 -59 12 c-54 11 -89 10 -185 -5 -32 -5 -33 -3 -33 28 0 18 -11 62 -24 98
-28 77 -69 185 -83 220 -6 14 -18 50 -27 81 -22 75 -47 106 -104 123 -26 8
-73 24 -104 35 -69 25 -197 27 -298 5z m268 -233 c20 -11 22 -19 22 -104 0
-80 -3 -99 -27 -145 -15 -30 -45 -73 -68 -97 -36 -39 -47 -44 -114 -56 -59
-10 -90 -10 -158 0 -101 14 -177 42 -181 66 -6 30 65 159 116 211 58 59 175
120 266 138 61 13 103 9 144 -13z"/>
<path d="M7153 4768 c-13 -6 -37 -33 -54 -59 -17 -27 -37 -49 -45 -49 -29 0
-73 -58 -109 -145 -20 -49 -70 -164 -110 -255 -113 -255 -148 -356 -142 -408
6 -56 32 -91 88 -120 33 -18 53 -22 84 -17 79 12 121 57 173 190 11 28 36 85
56 128 82 176 194 507 203 598 11 111 -59 178 -144 137z"/>
<path d="M5644 4699 c-81 -13 -212 -58 -299 -101 -238 -119 -385 -279 -414
-448 -5 -30 -16 -81 -25 -113 -46 -165 20 -353 157 -453 74 -54 139 -75 252
-81 154 -8 337 33 500 114 208 103 327 228 404 428 33 85 36 97 36 211 0 119
0 121 -38 196 -61 125 -189 222 -327 248 -62 12 -174 11 -246 -1z m225 -392
c47 -31 62 -72 49 -132 -31 -140 -152 -250 -353 -317 -105 -36 -245 -49 -295
-28 -75 31 -90 111 -43 228 59 150 76 166 236 221 200 68 331 77 406 28z"/>
<path d="M7764 4137 c-78 -45 -107 -75 -134 -135 -45 -98 27 -212 132 -212 77
1 166 87 175 172 13 112 -95 221 -173 175z"/>
</g>
</svg>
